<svg height="480pt" viewBox="0 0 480 480" width="480pt" xmlns="http://www.w3.org/2000/svg" xmlns:xlink="http://www.w3.org/1999/xlink"><linearGradient id="linear0" gradientUnits="userSpaceOnUse" x1="240" x2="240" y1="480" y2="0"><stop offset="0" stop-color="#12c2e9"/><stop offset=".056" stop-color="#19bfe9"/><stop offset=".137" stop-color="#2db6ea"/><stop offset=".235" stop-color="#4da7ea"/><stop offset=".344" stop-color="#7993eb"/><stop offset=".462" stop-color="#b279ed"/><stop offset=".497" stop-color="#c471ed"/><stop offset="1" stop-color="#f64f59"/></linearGradient><path d="m240 0c-132.546875 0-240 107.453125-240 240s107.453125 240 240 240 240-107.453125 240-240c-.148438-132.484375-107.515625-239.851562-240-240zm0 464c-123.710938 0-224-100.289062-224-224s100.289062-224 224-224 224 100.289062 224 224c-.140625 123.652344-100.347656 223.859375-224 224zm120-224c0 4.417969-3.582031 8-8 8h-206.921875l69.066406 82.878906c1.910157 2.1875 2.488281 5.238282 1.507813 7.96875-.980469 2.734375-3.363282 4.722656-6.230469 5.195313-2.863281.46875-5.761719-.648438-7.566406-2.921875l-80-96c-.191407-.234375-.246094-.519532-.414063-.761719-.234375-.3125-.449218-.640625-.640625-.984375-.105469-.222656-.167969-.445312-.257812-.679688-.128907-.386718-.222657-.785156-.277344-1.191406-.097656-.378906-.164063-.761718-.195313-1.152344 0-.121093-.070312-.222656-.070312-.351562s.0625-.230469.070312-.351562c.03125-.390626.097657-.773438.195313-1.152344.054687-.40625.148437-.804688.277344-1.191406.089843-.234376.152343-.457032.257812-.679688.191407-.34375.40625-.671875.640625-.984375.167969-.242187.222656-.527344.414063-.761719l80-96c2.859375-3.269531 7.804687-3.65625 11.144531-.878906 3.335938 2.78125 3.84375 7.71875 1.144531 11.121094l-69.066406 82.878906h206.921875c4.417969 0 8 3.582031 8 8zm0 0" fill="url(#linear0)"/></svg>